<?xml version="1.0" encoding="UTF-8" ?>
<!DOCTYPE svg PUBLIC "-//W3C//DTD SVG 1.1//EN" "http://www.w3.org/Graphics/SVG/1.1/DTD/svg11.dtd">
<svg width="1024" height="1024" viewBox="0 0 1024 1024" version="1.1" xmlns="http://www.w3.org/2000/svg">
<g id="#000000ff">
<path fill="#000000" opacity="1.00" d=" M 429.55 29.70 C 456.52 10.14 490.30 3.08 523.00 1.44 C 533.03 1.75 543.13 0.76 553.08 2.36 C 561.59 2.96 570.14 3.98 578.26 6.69 C 591.44 9.70 603.93 15.43 615.47 22.43 C 630.02 33.02 643.48 45.61 653.05 60.98 C 657.00 67.01 659.41 73.85 663.09 80.02 C 668.53 92.56 672.94 105.58 675.91 118.92 C 676.96 127.06 679.71 134.88 680.26 143.10 C 681.09 151.74 682.79 160.29 683.43 168.95 C 683.25 175.68 684.80 182.31 684.49 189.05 C 684.54 216.36 684.60 243.67 684.51 270.99 C 684.26 281.01 686.94 290.77 688.59 300.58 C 690.62 306.84 691.88 313.36 694.60 319.39 C 701.61 338.84 712.96 356.33 724.84 373.12 C 730.34 381.16 737.05 388.29 742.70 396.23 C 746.83 402.05 751.35 407.58 755.96 413.03 C 758.71 416.38 761.85 419.47 763.98 423.29 C 764.66 423.74 765.36 424.19 766.06 424.64 C 767.18 426.85 768.54 428.94 770.24 430.76 C 779.26 440.98 786.77 452.39 794.73 463.42 C 823.80 505.96 848.22 552.84 858.13 603.78 C 860.20 610.34 859.04 617.27 860.35 623.95 C 862.23 634.90 861.44 646.01 861.63 657.05 C 861.25 671.33 859.71 685.80 855.30 699.41 C 854.92 697.42 854.65 695.48 854.28 693.52 C 854.31 697.40 854.58 701.28 854.68 705.17 C 853.95 706.03 853.23 706.90 852.51 707.78 C 852.49 709.75 852.53 711.73 852.51 713.72 C 862.80 718.61 872.32 725.86 877.91 735.96 C 882.27 743.70 884.80 752.29 887.18 760.81 C 888.62 769.28 891.16 777.51 893.01 785.90 C 895.30 791.62 896.44 797.91 900.09 803.01 C 904.06 809.74 910.23 814.73 914.89 820.94 C 921.86 829.55 927.41 839.31 931.16 849.73 C 934.36 859.32 934.60 870.09 930.38 879.41 C 927.62 886.11 922.21 891.16 916.82 895.79 C 907.36 903.69 895.90 908.48 885.06 914.08 C 872.47 920.08 860.16 926.63 847.59 932.64 C 846.43 933.24 846.00 934.58 845.24 935.57 C 843.45 935.90 841.67 936.24 839.90 936.60 C 839.31 937.41 838.71 938.21 838.09 938.99 C 830.44 943.45 823.27 948.76 816.61 954.59 C 802.63 967.24 792.26 983.71 776.45 994.35 C 759.81 1008.00 739.65 1017.10 718.70 1021.77 C 711.32 1023.75 703.60 1023.65 696.03 1023.50 C 688.49 1023.51 681.32 1020.90 674.16 1018.88 C 651.39 1011.40 633.61 992.56 624.71 970.64 C 624.03 968.05 623.05 965.54 621.14 963.62 C 611.81 963.50 602.47 963.82 593.16 963.29 C 582.77 961.95 572.37 960.64 561.97 959.42 C 554.94 958.55 548.04 956.85 540.97 956.37 C 531.38 954.96 521.65 955.56 511.99 955.53 C 502.81 956.36 493.55 956.57 484.48 958.35 C 478.06 959.72 471.44 959.82 465.07 961.48 C 455.86 963.77 446.39 964.69 437.14 966.79 C 430.93 968.17 424.53 967.20 418.27 967.91 C 414.22 971.20 412.39 976.28 409.34 980.38 C 405.97 984.92 402.35 989.42 397.61 992.62 C 392.83 995.86 388.43 999.69 383.28 1002.36 C 372.84 1007.52 361.29 1009.89 349.81 1011.33 C 343.52 1011.78 337.20 1011.46 330.90 1011.54 C 303.13 1009.25 276.17 1000.43 251.59 987.46 C 242.25 982.52 232.15 979.27 222.02 976.42 C 214.64 975.13 207.48 972.75 200.00 972.04 C 190.92 971.09 181.94 969.47 172.85 968.68 C 163.34 966.85 153.58 967.06 144.14 964.86 C 137.94 964.21 131.70 963.46 125.81 961.30 C 115.78 958.63 106.01 953.84 99.06 945.96 C 91.70 937.51 88.36 926.07 88.54 914.99 C 88.50 909.13 90.59 903.59 91.44 897.86 C 92.37 891.78 95.28 886.24 96.44 880.21 L 97.20 880.51 C 98.89 876.50 100.51 872.36 100.55 867.94 C 101.12 857.24 99.98 846.48 97.94 835.98 C 95.50 824.19 94.93 812.06 95.67 800.07 C 97.61 787.13 105.38 775.61 115.62 767.68 C 125.92 759.68 138.73 756.20 150.82 751.89 C 159.28 748.74 167.62 744.43 173.50 737.39 C 180.34 729.18 186.07 720.11 192.98 711.95 C 196.81 707.71 200.73 703.55 204.52 699.27 C 203.18 691.23 203.60 683.05 202.52 674.99 C 202.06 664.00 203.61 653.05 204.66 642.13 C 208.53 619.55 214.48 597.27 223.03 575.99 C 225.84 567.77 229.96 560.07 232.89 551.89 C 239.51 536.97 247.66 522.81 255.68 508.63 C 258.07 503.58 261.31 499.04 264.32 494.37 C 270.86 482.54 279.18 471.82 286.42 460.43 C 289.91 454.40 294.74 449.32 298.68 443.60 C 303.55 436.62 309.21 430.24 313.92 423.15 C 316.92 418.50 321.19 414.87 324.30 410.29 C 326.97 406.37 330.29 402.96 333.23 399.25 C 343.38 383.93 353.05 368.13 359.95 351.04 C 369.38 328.59 374.26 304.42 376.19 280.23 C 377.70 272.27 377.93 264.10 377.07 256.05 C 375.98 247.38 377.08 238.58 375.62 229.93 C 375.84 220.93 374.22 212.05 374.40 203.05 C 372.95 188.76 373.59 174.37 373.61 160.03 C 374.07 154.70 374.53 149.36 374.85 144.02 C 376.23 135.02 376.06 125.80 378.52 116.97 C 381.22 101.20 386.62 85.98 393.63 71.64 C 400.99 59.67 408.63 47.58 419.28 38.24 C 422.94 35.65 425.50 31.79 429.55 29.70 M 531.24 150.19 C 520.79 157.37 513.28 168.31 509.11 180.18 C 504.86 192.51 503.62 205.83 504.78 218.77 C 512.88 221.14 520.58 224.62 528.17 228.26 C 527.76 219.37 527.88 210.26 530.74 201.74 C 533.20 194.14 538.19 187.07 545.36 183.30 C 549.99 180.85 555.89 181.74 559.95 184.93 C 568.28 190.84 572.31 201.01 573.64 210.82 C 575.28 223.08 571.30 235.45 564.70 245.69 C 572.37 248.23 579.82 251.38 587.11 254.86 C 588.33 255.22 590.20 256.70 591.11 255.05 C 599.65 243.43 604.74 229.34 605.96 214.99 C 607.31 200.16 604.02 185.07 597.34 171.82 C 590.49 158.44 578.37 147.20 563.54 143.59 C 552.46 140.81 540.52 143.80 531.24 150.19 M 422.36 153.56 C 413.55 156.29 406.71 163.47 402.64 171.56 C 389.22 197.49 392.55 230.73 409.83 254.08 C 410.69 255.15 411.77 256.03 412.82 256.93 C 417.40 254.16 421.94 251.26 425.83 247.55 C 418.87 241.26 414.33 232.28 413.79 222.88 C 413.01 213.75 413.82 203.81 419.34 196.14 C 421.78 192.77 425.60 189.54 430.05 190.16 C 435.16 191.73 438.89 196.02 441.63 200.43 C 446.91 209.09 446.98 219.59 447.10 229.41 C 452.80 226.33 458.41 223.01 464.47 220.65 C 465.98 219.84 468.64 219.30 468.37 217.05 C 468.40 205.03 466.83 192.85 462.48 181.59 C 458.60 171.76 452.54 162.27 443.28 156.73 C 437.15 152.81 429.37 151.73 422.36 153.56 M 475.58 225.82 C 465.05 227.53 455.39 232.69 446.91 238.99 C 439.83 244.16 433.72 250.49 426.79 255.84 C 418.13 262.80 409.02 269.18 400.51 276.32 C 396.14 279.88 392.97 285.25 393.12 291.01 C 393.26 297.35 395.94 303.38 399.51 308.52 C 406.42 318.34 416.75 324.84 426.61 331.32 C 439.86 339.88 449.75 353.23 464.56 359.41 C 481.74 366.74 501.62 363.74 518.17 356.13 C 529.73 350.79 539.89 342.93 551.24 337.19 C 558.28 333.66 565.95 331.61 572.96 327.99 C 586.91 321.05 599.98 310.20 605.39 295.16 C 608.58 285.58 604.52 274.47 596.47 268.59 C 581.43 256.92 561.79 254.66 545.17 246.06 C 536.59 241.65 528.57 236.21 519.73 232.30 C 506.09 225.84 490.51 223.22 475.58 225.82 M 579.58 332.75 C 570.94 337.45 561.37 340.09 552.64 344.57 C 537.63 352.71 523.93 363.93 507.05 368.07 C 490.17 372.75 471.52 371.37 455.95 363.13 C 447.78 358.56 441.03 351.99 433.91 346.01 C 425.85 339.05 416.87 333.30 408.09 327.32 C 407.67 329.15 407.32 331.01 407.16 332.89 C 404.30 364.96 395.07 396.06 384.07 426.19 C 368.76 468.01 349.06 508.00 330.67 548.51 C 322.62 566.84 316.23 585.88 311.34 605.29 C 305.92 627.84 301.88 650.83 301.35 674.07 C 288.42 656.85 281.19 635.52 280.07 614.06 C 278.63 588.86 284.38 563.75 293.47 540.38 C 300.47 521.92 310.39 504.79 319.07 487.11 C 322.14 480.84 325.46 474.54 326.70 467.59 C 325.14 468.73 323.52 469.88 322.47 471.54 C 318.03 478.20 314.25 485.28 310.18 492.17 C 291.98 523.73 275.69 557.09 268.51 593.05 C 264.13 615.11 263.94 638.46 271.34 659.90 C 277.54 678.21 289.50 694.28 304.43 706.43 C 313.68 714.23 324.38 719.97 334.31 726.81 C 357.08 742.07 378.62 759.76 395.36 781.64 C 403.34 792.07 409.98 803.97 412.09 817.08 C 413.83 826.22 409.83 835.95 402.69 841.77 C 395.52 847.55 386.03 848.76 377.19 849.80 C 386.48 860.40 394.63 871.92 402.63 883.51 C 405.26 887.40 408.73 890.71 412.77 893.12 C 430.36 903.76 449.72 911.50 469.88 915.60 C 491.01 919.71 512.86 919.89 534.12 916.58 C 562.22 912.13 589.26 901.98 613.95 887.94 C 620.19 884.33 626.47 880.70 632.08 876.15 C 634.59 874.39 635.34 871.25 636.34 868.54 C 639.49 858.50 642.46 848.40 644.70 838.12 C 649.68 817.42 648.91 795.98 651.18 774.94 C 653.25 755.09 655.88 734.81 664.24 716.48 C 671.21 701.02 683.92 688.06 699.91 682.03 C 700.72 672.69 703.26 662.89 710.08 656.08 C 716.76 648.69 727.28 645.93 736.96 646.79 C 756.65 648.61 775.29 656.30 792.51 665.68 C 803.26 671.95 814.80 678.85 820.76 690.24 C 824.07 696.16 822.22 703.01 821.70 709.34 C 824.76 709.39 827.94 709.60 830.75 708.14 C 831.80 699.73 832.23 690.65 828.16 682.93 C 823.28 672.93 814.21 665.98 805.30 659.76 C 793.66 652.16 781.53 645.13 768.57 640.04 C 770.35 631.09 772.09 622.10 772.42 612.96 C 773.48 589.62 768.15 566.46 760.23 544.63 C 747.68 511.55 728.42 480.78 702.78 456.26 C 700.18 453.70 697.14 451.24 693.27 451.28 C 694.38 454.63 696.35 457.62 698.80 460.15 C 728.07 489.90 749.47 528.35 755.49 569.93 C 758.80 591.13 756.70 613.27 748.79 633.26 C 741.79 631.97 734.80 629.57 727.59 630.54 C 721.82 601.17 712.97 572.41 701.23 544.87 C 693.77 526.89 684.62 509.70 675.67 492.44 C 655.85 452.81 639.18 411.66 624.42 369.90 C 617.79 350.43 610.90 330.98 606.48 310.87 C 598.93 319.70 589.97 327.44 579.58 332.75 M 674.18 726.23 C 663.31 756.55 664.15 789.23 661.21 820.88 C 656.09 862.10 637.05 900.38 634.05 941.98 C 632.45 966.40 647.20 990.14 668.34 1001.75 C 682.66 1009.96 700.06 1011.25 716.02 1008.01 C 736.59 1003.74 755.67 993.61 771.72 980.18 C 782.82 971.18 792.01 960.17 801.82 949.84 C 815.18 935.95 831.60 925.43 848.59 916.51 C 865.56 907.31 883.62 900.19 900.13 890.11 C 907.34 885.64 914.23 880.08 918.48 872.59 C 921.60 866.96 920.53 860.12 918.35 854.37 C 914.02 843.47 907.12 833.85 899.88 824.71 C 894.67 817.99 888.60 811.77 885.09 803.91 C 878.34 789.63 876.68 773.74 872.17 758.75 C 869.44 749.07 865.33 739.21 857.46 732.59 C 849.16 725.36 837.83 722.69 827.04 722.85 C 823.21 723.00 819.19 722.34 815.51 723.66 C 811.69 725.77 808.59 728.93 805.19 731.64 C 793.30 741.76 779.51 749.76 764.58 754.43 C 754.50 757.38 743.36 758.61 733.35 754.72 C 721.88 750.49 713.40 740.71 707.88 730.11 C 702.42 719.80 700.51 708.14 698.77 696.75 C 687.64 703.55 678.89 714.08 674.18 726.23 M 231.42 699.53 C 224.78 701.30 218.85 705.10 213.79 709.67 C 198.83 722.99 190.76 742.52 174.63 754.68 C 160.31 765.50 141.66 767.43 126.51 776.66 C 119.39 781.41 113.36 788.22 110.57 796.40 C 106.88 807.27 109.05 818.87 110.38 829.95 C 112.38 845.44 116.82 861.37 112.61 876.89 C 109.13 888.43 104.97 899.86 103.40 911.88 C 102.04 919.74 103.32 928.32 108.19 934.81 C 114.25 942.57 123.79 946.54 133.13 948.75 C 144.96 951.39 157.06 952.51 169.07 953.97 C 192.61 956.65 216.44 959.40 238.89 967.38 C 252.69 972.13 265.36 979.54 278.84 985.05 C 297.66 992.55 317.68 997.74 338.05 997.75 C 354.94 997.83 372.52 994.41 386.46 984.39 C 396.98 976.94 404.19 965.44 407.42 953.06 C 409.16 946.26 410.51 939.16 409.37 932.14 C 407.44 918.14 400.43 905.56 393.28 893.61 C 374.23 862.41 346.52 837.38 328.84 805.25 C 317.42 784.29 306.00 763.34 294.56 742.40 C 291.54 736.90 288.34 731.49 284.54 726.49 C 278.24 717.82 269.93 710.74 260.81 705.19 C 252.00 700.28 241.46 697.32 231.42 699.53 Z" />
<path fill="#000000" opacity="1.00" d=" M 577.01 284.98 C 579.38 283.95 581.96 283.59 584.49 283.14 C 585.27 284.73 586.38 286.24 586.66 288.03 C 585.71 290.56 582.96 291.58 580.76 292.75 C 561.35 301.32 544.13 314.01 524.86 322.87 C 510.65 329.85 494.92 334.24 479.00 333.79 C 460.45 333.05 442.40 325.85 428.01 314.21 C 420.11 307.81 412.06 301.34 405.66 293.39 C 404.00 291.32 401.70 285.85 406.00 285.63 C 410.84 287.46 414.16 291.72 418.12 294.87 C 431.28 306.74 445.60 318.33 462.98 323.19 C 474.72 326.71 487.31 326.21 499.06 323.05 C 516.49 318.72 532.48 310.16 547.75 300.93 C 557.24 295.15 566.79 289.39 577.01 284.98 Z" />
</g>
<g id="#fefefeff">
<path fill="#fefefe" opacity="1.00" d=" M 531.24 150.19 C 540.52 143.80 552.46 140.81 563.54 143.59 C 578.37 147.20 590.49 158.44 597.34 171.82 C 604.02 185.07 607.31 200.16 605.96 214.99 C 604.74 229.34 599.65 243.43 591.11 255.05 C 590.20 256.70 588.33 255.22 587.11 254.86 C 579.82 251.38 572.37 248.23 564.70 245.69 C 571.30 235.45 575.28 223.08 573.64 210.82 C 572.31 201.01 568.28 190.84 559.95 184.93 C 555.89 181.74 549.99 180.85 545.36 183.30 C 538.19 187.07 533.20 194.14 530.74 201.74 C 527.88 210.26 527.76 219.37 528.17 228.26 C 520.58 224.62 512.88 221.14 504.78 218.77 C 503.62 205.83 504.86 192.51 509.11 180.18 C 513.28 168.31 520.79 157.37 531.24 150.19 Z" />
<path fill="#fefefe" opacity="1.00" d=" M 422.36 153.56 C 429.37 151.73 437.15 152.81 443.28 156.73 C 452.54 162.27 458.60 171.76 462.48 181.59 C 466.83 192.85 468.40 205.03 468.37 217.05 C 468.64 219.30 465.98 219.84 464.47 220.65 C 458.41 223.01 452.80 226.33 447.10 229.41 C 446.98 219.59 446.91 209.09 441.63 200.43 C 438.89 196.02 435.16 191.73 430.05 190.16 C 425.60 189.54 421.78 192.77 419.34 196.14 C 413.82 203.81 413.01 213.75 413.79 222.88 C 414.33 232.28 418.87 241.26 425.83 247.55 C 421.94 251.26 417.40 254.16 412.82 256.93 C 411.77 256.03 410.69 255.15 409.83 254.08 C 392.55 230.73 389.22 197.49 402.64 171.56 C 406.71 163.47 413.55 156.29 422.36 153.56 Z" />
<path fill="#fefefe" opacity="1.00" d=" M 579.58 332.75 C 589.97 327.44 598.93 319.70 606.48 310.87 C 610.90 330.98 617.79 350.43 624.42 369.90 C 639.18 411.66 655.85 452.81 675.67 492.44 C 684.62 509.70 693.77 526.89 701.23 544.87 C 712.97 572.41 721.82 601.17 727.59 630.54 C 734.80 629.57 741.79 631.97 748.79 633.26 C 756.70 613.27 758.80 591.13 755.49 569.93 C 749.47 528.35 728.07 489.90 698.80 460.15 C 696.35 457.62 694.38 454.63 693.27 451.28 C 697.14 451.24 700.18 453.70 702.78 456.26 C 728.42 480.78 747.68 511.55 760.23 544.63 C 768.15 566.46 773.48 589.62 772.42 612.96 C 772.09 622.10 770.35 631.09 768.57 640.04 C 781.53 645.13 793.66 652.16 805.30 659.76 C 814.21 665.98 823.28 672.93 828.16 682.93 C 832.23 690.65 831.80 699.73 830.75 708.14 C 827.94 709.60 824.76 709.39 821.70 709.34 C 822.22 703.01 824.07 696.16 820.76 690.24 C 814.80 678.85 803.26 671.95 792.51 665.68 C 775.29 656.30 756.65 648.61 736.96 646.79 C 727.28 645.93 716.76 648.69 710.08 656.08 C 703.26 662.89 700.72 672.69 699.91 682.03 C 683.92 688.06 671.21 701.02 664.24 716.48 C 655.88 734.81 653.25 755.09 651.18 774.94 C 648.91 795.98 649.68 817.42 644.70 838.12 C 642.46 848.40 639.49 858.50 636.34 868.54 C 635.34 871.25 634.59 874.39 632.08 876.15 C 626.47 880.70 620.19 884.33 613.95 887.94 C 589.26 901.98 562.22 912.13 534.12 916.58 C 512.86 919.89 491.01 919.71 469.88 915.60 C 449.72 911.50 430.36 903.76 412.77 893.12 C 408.73 890.71 405.26 887.40 402.63 883.51 C 394.63 871.92 386.48 860.40 377.19 849.80 C 386.03 848.76 395.52 847.55 402.69 841.77 C 409.83 835.95 413.83 826.22 412.09 817.08 C 409.98 803.97 403.34 792.07 395.36 781.64 C 378.62 759.76 357.08 742.07 334.31 726.81 C 324.38 719.97 313.68 714.23 304.43 706.43 C 289.50 694.28 277.54 678.21 271.34 659.90 C 263.94 638.46 264.13 615.11 268.51 593.05 C 275.69 557.09 291.98 523.73 310.18 492.17 C 314.25 485.28 318.03 478.20 322.47 471.54 C 323.52 469.88 325.14 468.73 326.70 467.59 C 325.46 474.54 322.14 480.84 319.07 487.11 C 310.39 504.79 300.47 521.92 293.47 540.38 C 284.38 563.75 278.63 588.86 280.07 614.06 C 281.19 635.52 288.42 656.85 301.35 674.07 C 301.88 650.83 305.92 627.84 311.34 605.29 C 316.23 585.88 322.62 566.84 330.67 548.51 C 349.06 508.00 368.76 468.01 384.07 426.19 C 395.07 396.06 404.30 364.96 407.16 332.89 C 407.32 331.01 407.67 329.15 408.09 327.32 C 416.87 333.30 425.85 339.05 433.91 346.01 C 441.03 351.99 447.78 358.56 455.95 363.13 C 471.52 371.37 490.17 372.75 507.05 368.07 C 523.93 363.93 537.63 352.71 552.64 344.57 C 561.37 340.09 570.94 337.45 579.58 332.75 Z" />
</g>
<g id="#dba10cff">
<path fill="#dba10c" opacity="1.00" d=" M 475.58 225.82 C 490.51 223.22 506.09 225.84 519.73 232.30 C 528.57 236.21 536.59 241.65 545.17 246.06 C 561.79 254.66 581.43 256.92 596.47 268.59 C 604.52 274.47 608.58 285.58 605.39 295.16 C 599.98 310.20 586.91 321.05 572.96 327.99 C 565.95 331.61 558.28 333.66 551.24 337.19 C 539.89 342.93 529.73 350.79 518.17 356.13 C 501.62 363.74 481.74 366.74 464.56 359.41 C 449.75 353.23 439.86 339.88 426.61 331.32 C 416.75 324.84 406.42 318.34 399.51 308.52 C 395.94 303.38 393.26 297.35 393.12 291.01 C 392.97 285.25 396.14 279.88 400.51 276.32 C 409.02 269.18 418.13 262.80 426.79 255.84 C 433.72 250.49 439.83 244.16 446.91 238.99 C 455.39 232.69 465.05 227.53 475.58 225.82 M 577.01 284.98 C 566.79 289.39 557.24 295.15 547.75 300.93 C 532.48 310.16 516.49 318.72 499.06 323.05 C 487.31 326.21 474.72 326.71 462.98 323.19 C 445.60 318.33 431.28 306.74 418.12 294.87 C 414.16 291.72 410.84 287.46 406.00 285.63 C 401.70 285.85 404.00 291.32 405.66 293.39 C 412.06 301.34 420.11 307.81 428.01 314.21 C 442.40 325.85 460.45 333.05 479.00 333.79 C 494.92 334.24 510.65 329.85 524.86 322.87 C 544.13 314.01 561.35 301.32 580.76 292.75 C 582.96 291.58 585.71 290.56 586.66 288.03 C 586.38 286.24 585.27 284.73 584.49 283.14 C 581.96 283.59 579.38 283.95 577.01 284.98 Z" />
<path fill="#dba10c" opacity="1.00" d=" M 674.18 726.23 C 678.89 714.08 687.64 703.55 698.77 696.75 C 700.51 708.14 702.42 719.80 707.88 730.11 C 713.40 740.71 721.88 750.49 733.35 754.72 C 743.36 758.61 754.50 757.38 764.58 754.43 C 779.51 749.76 793.30 741.76 805.19 731.64 C 808.59 728.93 811.69 725.77 815.51 723.66 C 819.19 722.34 823.21 723.00 827.04 722.85 C 837.83 722.69 849.16 725.36 857.46 732.59 C 865.33 739.21 869.44 749.07 872.17 758.75 C 876.68 773.74 878.34 789.63 885.09 803.91 C 888.60 811.77 894.67 817.99 899.88 824.71 C 907.12 833.85 914.02 843.47 918.35 854.37 C 920.53 860.12 921.60 866.96 918.48 872.59 C 914.23 880.08 907.34 885.64 900.13 890.11 C 883.62 900.19 865.56 907.31 848.59 916.51 C 831.60 925.43 815.18 935.95 801.82 949.84 C 792.01 960.17 782.82 971.18 771.72 980.18 C 755.67 993.61 736.59 1003.74 716.02 1008.01 C 700.06 1011.25 682.66 1009.96 668.34 1001.75 C 647.20 990.14 632.45 966.40 634.05 941.98 C 637.05 900.38 656.09 862.10 661.21 820.88 C 664.15 789.23 663.31 756.55 674.18 726.23 Z" />
<path fill="#dba10c" opacity="1.00" d=" M 231.42 699.53 C 241.46 697.32 252.00 700.28 260.81 705.19 C 269.93 710.74 278.24 717.82 284.54 726.49 C 288.34 731.49 291.54 736.90 294.56 742.40 C 306.00 763.34 317.42 784.29 328.84 805.25 C 346.52 837.38 374.23 862.41 393.28 893.61 C 400.43 905.56 407.44 918.14 409.37 932.14 C 410.51 939.16 409.16 946.26 407.42 953.06 C 404.19 965.44 396.98 976.94 386.46 984.39 C 372.52 994.41 354.94 997.83 338.05 997.75 C 317.68 997.74 297.66 992.55 278.84 985.05 C 265.36 979.54 252.69 972.13 238.89 967.38 C 216.44 959.40 192.61 956.65 169.07 953.97 C 157.06 952.51 144.96 951.39 133.13 948.75 C 123.79 946.54 114.25 942.57 108.19 934.81 C 103.32 928.32 102.04 919.74 103.40 911.88 C 104.97 899.86 109.13 888.43 112.61 876.89 C 116.82 861.37 112.38 845.44 110.38 829.95 C 109.05 818.87 106.88 807.27 110.57 796.40 C 113.36 788.22 119.39 781.41 126.51 776.66 C 141.66 767.43 160.31 765.50 174.63 754.68 C 190.76 742.52 198.83 722.99 213.79 709.67 C 218.85 705.10 224.78 701.30 231.42 699.53 Z" />
</g>
</svg>

